# xmcd
#
# Track frame offsets: 
#        150
#        22046
#        40472
#        63123
#        80083
#        108361
#        129958
#        148014
#        167279
#        186399
#        207175
#
# Disc length: 3114 seconds
#
# Revision: 2
# Processed by: cddbd v1.5.2PL0 Copyright (c) Steve Scherf et al.
# Submitted via: ExactAudioCopy v0.99pb4
#
DISCID=950c280b
DTITLE=Toler Townsend Band - Toler Townsend Band
DYEAR=2009
DGENRE=Blues Rock
TTITLE0=Loneliness
TTITLE1=Sorry's Not Enough
TTITLE2=Novato Moon
TTITLE3=Full Time Fool
TTITLE4=Ali Shuffle
TTITLE5=Just Let Go
TTITLE6=Ugly Rumors
TTITLE7=Love Never Felt Like This
TTITLE8=Good Love Goes Bad
TTITLE9=Dark Clouds
TTITLE10=Living In Your Past 
EXTD=
EXTT0=
EXTT1=
EXTT2=
EXTT3=
EXTT4=
EXTT5=
EXTT6=
EXTT7=
EXTT8=
EXTT9=
EXTT10=
PLAYORDER=
